<svg xmlns="http://www.w3.org/2000/svg" xmlns:xlink="http://www.w3.org/1999/xlink" width="500" zoomAndPan="magnify" viewBox="0 0 375 374.999991" height="500" preserveAspectRatio="xMidYMid meet" version="1.0"><defs><g/><clipPath id="b172307a8b"><path d="M 27 28 L 346.585938 28 L 346.585938 345 L 27 345 Z M 27 28 " clip-rule="nonzero"/></clipPath><clipPath id="5d9d332765"><path d="M 118.210938 48.921875 L 256.785156 48.921875 L 256.785156 187.496094 L 118.210938 187.496094 Z M 118.210938 48.921875 " clip-rule="nonzero"/></clipPath><clipPath id="f219b16b9a"><path d="M 187.5 48.921875 C 149.234375 48.921875 118.210938 79.945312 118.210938 118.210938 C 118.210938 156.476562 149.234375 187.496094 187.5 187.496094 C 225.765625 187.496094 256.785156 156.476562 256.785156 118.210938 C 256.785156 79.945312 225.765625 48.921875 187.5 48.921875 Z M 187.5 48.921875 " clip-rule="nonzero"/></clipPath></defs><g clip-path="url(#b172307a8b)"><path fill="#ff3131" d="M 346.84375 151.683594 C 346.839844 150.484375 346.785156 149.289062 346.679688 148.097656 C 346.570312 146.902344 346.410156 145.71875 346.195312 144.539062 C 345.984375 143.359375 345.71875 142.191406 345.398438 141.039062 C 345.082031 139.882812 344.714844 138.742188 344.292969 137.621094 C 343.875 136.5 343.40625 135.398438 342.890625 134.316406 C 342.371094 133.238281 341.808594 132.179688 341.195312 131.152344 C 340.585938 130.121094 339.929688 129.121094 339.226562 128.148438 C 338.527344 127.175781 337.785156 126.238281 337 125.332031 C 336.214844 124.425781 335.390625 123.558594 334.53125 122.726562 C 333.667969 121.894531 332.769531 121.101562 331.839844 120.347656 C 330.90625 119.597656 329.941406 118.886719 328.945312 118.222656 C 327.949219 117.554688 326.925781 116.933594 325.875 116.359375 C 324.824219 115.785156 323.75 115.257812 322.652344 114.777344 C 321.554688 114.300781 320.4375 113.871094 319.300781 113.492188 C 318.164062 113.109375 317.015625 112.78125 315.847656 112.503906 C 314.683594 112.230469 313.507812 112.003906 312.320312 111.832031 C 316.714844 68.605469 288.421875 28.488281 245.09375 28.363281 L 128.953125 28.363281 C 85.628906 28.539062 57.332031 68.535156 61.726562 111.832031 C 59.703125 112.121094 57.710938 112.558594 55.757812 113.152344 C 53.800781 113.742188 51.902344 114.476562 50.058594 115.359375 C 48.214844 116.242188 46.449219 117.257812 44.757812 118.40625 C 43.070312 119.558594 41.480469 120.828125 39.984375 122.222656 C 38.488281 123.617188 37.109375 125.113281 35.84375 126.71875 C 34.578125 128.324219 33.441406 130.011719 32.433594 131.789062 C 31.425781 133.566406 30.558594 135.410156 29.832031 137.320312 C 29.101562 139.230469 28.527344 141.183594 28.097656 143.183594 C 27.667969 145.179688 27.394531 147.199219 27.273438 149.238281 C 27.152344 151.277344 27.1875 153.316406 27.375 155.351562 C 27.566406 157.382812 27.910156 159.394531 28.40625 161.375 C 28.902344 163.355469 29.546875 165.289062 30.339844 167.175781 C 31.128906 169.058594 32.058594 170.871094 33.128906 172.613281 C 34.195312 174.355469 35.390625 176.003906 36.710938 177.566406 C 38.027344 179.125 39.460938 180.578125 41 181.917969 C 42.542969 183.257812 44.175781 184.476562 45.902344 185.570312 L 45.902344 291.023438 C 45.902344 291.414062 45.941406 291.796875 46.015625 292.179688 C 46.089844 292.558594 46.203125 292.929688 46.351562 293.289062 C 46.5 293.648438 46.683594 293.988281 46.898438 294.3125 C 47.113281 294.636719 47.359375 294.933594 47.636719 295.210938 C 47.910156 295.484375 48.210938 295.730469 48.53125 295.945312 C 48.855469 296.164062 49.195312 296.34375 49.554688 296.492188 C 49.914062 296.640625 50.285156 296.753906 50.667969 296.828125 C 51.046875 296.90625 51.433594 296.941406 51.820312 296.941406 L 73.800781 296.941406 L 63.988281 337.175781 C 63.882812 337.609375 63.828125 338.054688 63.820312 338.5 C 63.816406 338.949219 63.859375 339.394531 63.953125 339.832031 C 64.050781 340.269531 64.191406 340.691406 64.382812 341.097656 C 64.574219 341.503906 64.808594 341.882812 65.085938 342.234375 C 65.363281 342.585938 65.675781 342.90625 66.023438 343.1875 C 66.375 343.46875 66.75 343.707031 67.152344 343.902344 C 67.554688 344.097656 67.976562 344.246094 68.414062 344.347656 C 68.851562 344.449219 69.292969 344.5 69.742188 344.5 L 88.609375 344.5 C 89.644531 344.5 90.617188 344.246094 91.519531 343.734375 C 92.421875 343.222656 93.140625 342.527344 93.679688 341.636719 L 120.636719 296.941406 L 253.410156 296.941406 L 280.367188 341.636719 C 280.902344 342.527344 281.621094 343.222656 282.523438 343.734375 C 283.429688 344.246094 284.398438 344.5 285.4375 344.5 L 304.304688 344.5 C 304.75 344.496094 305.191406 344.441406 305.625 344.335938 C 306.0625 344.234375 306.480469 344.085938 306.878906 343.886719 C 307.28125 343.6875 307.65625 343.449219 308.003906 343.167969 C 308.351562 342.886719 308.664062 342.570312 308.9375 342.21875 C 309.214844 341.867188 309.449219 341.488281 309.640625 341.085938 C 309.832031 340.679688 309.976562 340.261719 310.070312 339.824219 C 310.167969 339.386719 310.214844 338.945312 310.210938 338.5 C 310.210938 338.050781 310.15625 337.609375 310.054688 337.175781 L 300.246094 296.941406 L 322.222656 296.941406 C 322.613281 296.941406 322.996094 296.90625 323.378906 296.828125 C 323.757812 296.753906 324.128906 296.640625 324.488281 296.492188 C 324.847656 296.34375 325.1875 296.164062 325.511719 295.945312 C 325.835938 295.730469 326.136719 295.484375 326.410156 295.210938 C 326.683594 294.933594 326.929688 294.636719 327.144531 294.3125 C 327.363281 293.988281 327.542969 293.648438 327.691406 293.289062 C 327.839844 292.929688 327.953125 292.558594 328.027344 292.179688 C 328.105469 291.796875 328.144531 291.414062 328.140625 291.023438 L 328.140625 185.570312 C 329.566406 184.667969 330.929688 183.683594 332.230469 182.613281 C 333.53125 181.542969 334.761719 180.394531 335.917969 179.167969 C 337.074219 177.941406 338.148438 176.648438 339.140625 175.285156 C 340.132812 173.925781 341.039062 172.507812 341.851562 171.03125 C 342.664062 169.554688 343.382812 168.035156 344.007812 166.46875 C 344.628906 164.902344 345.152344 163.304688 345.570312 161.671875 C 345.992188 160.042969 346.308594 158.390625 346.523438 156.71875 C 346.734375 155.046875 346.839844 153.367188 346.84375 151.683594 Z M 128.953125 40.199219 L 245.09375 40.199219 C 282.488281 40.804688 304.160156 74.628906 300.480469 111.746094 C 299.300781 111.933594 298.132812 112.167969 296.972656 112.457031 C 295.8125 112.742188 294.667969 113.082031 293.539062 113.46875 C 292.410156 113.859375 291.296875 114.296875 290.207031 114.785156 C 289.117188 115.269531 288.046875 115.804688 287.003906 116.386719 C 285.960938 116.964844 284.945312 117.589844 283.957031 118.261719 C 282.96875 118.933594 282.011719 119.644531 281.085938 120.402344 C 280.160156 121.15625 279.269531 121.949219 278.410156 122.785156 C 277.554688 123.617188 276.738281 124.488281 275.960938 125.394531 C 275.179688 126.300781 274.445312 127.238281 273.75 128.210938 C 273.050781 129.179688 272.398438 130.179688 271.792969 131.207031 C 271.183594 132.238281 270.625 133.289062 270.109375 134.367188 C 269.59375 135.445312 269.128906 136.546875 268.710938 137.664062 C 268.292969 138.785156 267.925781 139.917969 267.605469 141.070312 C 267.289062 142.222656 267.023438 143.386719 266.808594 144.5625 C 266.59375 145.734375 266.429688 146.917969 266.320312 148.109375 C 266.210938 149.296875 266.152344 150.488281 266.144531 151.683594 L 266.144531 213.1875 L 107.898438 213.1875 L 107.898438 151.683594 C 107.902344 149.953125 107.792969 148.230469 107.570312 146.515625 C 107.351562 144.800781 107.023438 143.105469 106.582031 141.429688 C 106.144531 139.757812 105.601562 138.121094 104.949219 136.515625 C 104.296875 134.914062 103.546875 133.359375 102.695312 131.851562 C 101.84375 130.347656 100.898438 128.902344 99.859375 127.519531 C 98.824219 126.136719 97.699219 124.824219 96.492188 123.585938 C 95.285156 122.347656 94.003906 121.191406 92.644531 120.117188 C 91.289062 119.042969 89.867188 118.0625 88.382812 117.175781 C 83.8125 114.351562 78.875 112.542969 73.5625 111.746094 C 69.898438 74.644531 91.53125 40.800781 128.953125 40.199219 Z M 97.246094 227.308594 C 97.25 224.773438 100.179688 224.949219 101.980469 225.027344 L 272.066406 225.027344 C 273.699219 224.964844 276.902344 224.738281 276.800781 227.3125 C 276.402344 231.210938 278.199219 238.222656 274.515625 238.097656 L 99.527344 238.097656 C 95.800781 238.195312 97.667969 231.195312 97.246094 227.308594 Z M 85.269531 332.660156 L 77.277344 332.660156 L 85.988281 296.941406 L 106.808594 296.941406 Z M 296.765625 332.660156 L 288.777344 332.660156 L 267.238281 296.941406 L 288.054688 296.941406 Z M 316.304688 285.105469 L 57.742188 285.105469 L 57.742188 182.25 C 57.707031 181.96875 57.652344 181.691406 57.574219 181.417969 C 57.4375 180.484375 57.101562 179.628906 56.570312 178.851562 C 56.035156 178.074219 55.355469 177.453125 54.53125 176.992188 C 53.121094 176.265625 51.78125 175.429688 50.507812 174.480469 C 49.238281 173.53125 48.050781 172.484375 46.957031 171.335938 C 45.859375 170.191406 44.863281 168.960938 43.972656 167.648438 C 43.082031 166.335938 42.304688 164.960938 41.640625 163.519531 C 40.980469 162.078125 40.441406 160.589844 40.027344 159.058594 C 39.613281 157.527344 39.332031 155.972656 39.175781 154.390625 C 39.023438 152.8125 39 151.230469 39.109375 149.648438 C 39.21875 148.066406 39.457031 146.503906 39.828125 144.960938 C 40.199219 143.417969 40.691406 141.917969 41.3125 140.457031 C 41.933594 138.996094 42.671875 137.597656 43.527344 136.261719 C 44.378906 134.921875 45.339844 133.667969 46.402344 132.488281 C 47.464844 131.3125 48.621094 130.230469 49.863281 129.246094 C 51.109375 128.261719 52.425781 127.386719 53.816406 126.621094 C 55.207031 125.855469 56.648438 125.210938 58.148438 124.6875 C 59.644531 124.164062 61.175781 123.769531 62.738281 123.5 C 64.300781 123.230469 65.878906 123.09375 67.464844 123.085938 C 68.398438 123.09375 69.332031 123.140625 70.261719 123.238281 C 71.191406 123.332031 72.117188 123.472656 73.035156 123.660156 C 73.949219 123.84375 74.855469 124.074219 75.75 124.347656 C 76.644531 124.621094 77.523438 124.9375 78.386719 125.300781 C 79.25 125.660156 80.09375 126.058594 80.917969 126.503906 C 81.742188 126.945312 82.542969 127.425781 83.320312 127.945312 C 84.097656 128.46875 84.847656 129.023438 85.570312 129.617188 C 86.292969 130.210938 86.984375 130.839844 87.644531 131.5 C 88.308594 132.164062 88.933594 132.855469 89.527344 133.578125 C 90.121094 134.300781 90.679688 135.050781 91.199219 135.828125 C 91.722656 136.605469 92.203125 137.40625 92.644531 138.230469 C 93.085938 139.054688 93.488281 139.898438 93.847656 140.761719 C 94.207031 141.625 94.523438 142.503906 94.800781 143.398438 C 95.074219 144.292969 95.304688 145.199219 95.488281 146.113281 C 95.675781 147.03125 95.816406 147.953125 95.910156 148.886719 C 96.003906 149.816406 96.054688 150.75 96.058594 151.683594 L 96.058594 213.890625 C 95.3125 214.074219 94.582031 214.316406 93.875 214.617188 C 93.164062 214.917969 92.484375 215.277344 91.835938 215.695312 C 91.1875 216.109375 90.578125 216.574219 90.003906 217.089844 C 89.433594 217.609375 88.90625 218.167969 88.429688 218.769531 C 87.949219 219.375 87.523438 220.011719 87.148438 220.6875 C 86.777344 221.363281 86.460938 222.0625 86.203125 222.789062 C 85.949219 223.515625 85.75 224.257812 85.617188 225.015625 C 85.484375 225.777344 85.414062 226.539062 85.40625 227.3125 L 85.40625 235.8125 C 85.40625 236.742188 85.5 237.660156 85.679688 238.566406 C 85.863281 239.476562 86.128906 240.359375 86.484375 241.214844 C 86.839844 242.070312 87.277344 242.886719 87.792969 243.65625 C 88.304688 244.425781 88.890625 245.140625 89.546875 245.792969 C 90.203125 246.449219 90.914062 247.035156 91.6875 247.550781 C 92.457031 248.066406 93.269531 248.5 94.125 248.855469 C 94.984375 249.210938 95.867188 249.480469 96.773438 249.660156 C 97.683594 249.84375 98.601562 249.933594 99.527344 249.9375 L 274.515625 249.9375 C 275.441406 249.933594 276.359375 249.84375 277.269531 249.660156 C 278.179688 249.480469 279.0625 249.210938 279.917969 248.855469 C 280.773438 248.5 281.585938 248.066406 282.359375 247.550781 C 283.128906 247.035156 283.839844 246.449219 284.496094 245.792969 C 285.152344 245.140625 285.738281 244.425781 286.253906 243.65625 C 286.769531 242.886719 287.203125 242.070312 287.558594 241.214844 C 287.914062 240.359375 288.183594 239.476562 288.363281 238.566406 C 288.546875 237.660156 288.636719 236.742188 288.636719 235.8125 L 288.636719 227.3125 C 288.632812 226.539062 288.5625 225.777344 288.425781 225.015625 C 288.292969 224.257812 288.097656 223.515625 287.839844 222.789062 C 287.582031 222.0625 287.269531 221.363281 286.894531 220.6875 C 286.523438 220.011719 286.09375 219.375 285.617188 218.769531 C 285.136719 218.167969 284.613281 217.609375 284.039062 217.089844 C 283.46875 216.574219 282.855469 216.109375 282.207031 215.695312 C 281.558594 215.277344 280.878906 214.917969 280.171875 214.617188 C 279.460938 214.316406 278.734375 214.074219 277.984375 213.890625 L 277.984375 151.683594 C 277.976562 150.453125 278.046875 149.230469 278.195312 148.007812 C 278.347656 146.789062 278.578125 145.582031 278.890625 144.390625 C 279.199219 143.203125 279.585938 142.039062 280.046875 140.898438 C 280.511719 139.757812 281.046875 138.65625 281.65625 137.585938 C 282.265625 136.515625 282.941406 135.492188 283.683594 134.511719 C 284.425781 133.53125 285.230469 132.605469 286.097656 131.730469 C 286.960938 130.859375 287.878906 130.042969 288.851562 129.289062 C 289.824219 128.539062 290.84375 127.851562 291.90625 127.230469 C 292.71875 126.753906 293.558594 126.320312 294.417969 125.925781 C 295.277344 125.53125 296.15625 125.179688 297.050781 124.875 C 297.945312 124.566406 298.851562 124.304688 299.773438 124.089844 C 300.691406 123.875 301.621094 123.703125 302.558594 123.578125 C 303.496094 123.457031 304.4375 123.378906 305.382812 123.351562 C 306.328125 123.320312 307.273438 123.339844 308.21875 123.402344 C 309.160156 123.46875 310.097656 123.578125 311.03125 123.734375 C 311.964844 123.894531 312.886719 124.097656 313.796875 124.347656 C 314.710938 124.597656 315.605469 124.890625 316.488281 125.230469 C 317.371094 125.570312 318.234375 125.953125 319.082031 126.378906 C 319.925781 126.804688 320.746094 127.269531 321.542969 127.777344 C 322.34375 128.285156 323.113281 128.832031 323.855469 129.414062 C 324.601562 130 325.3125 130.621094 325.996094 131.273438 C 326.675781 131.929688 327.324219 132.617188 327.9375 133.335938 C 328.550781 134.058594 329.128906 134.804688 329.667969 135.582031 C 330.207031 136.359375 330.703125 137.160156 331.164062 137.988281 C 331.621094 138.816406 332.039062 139.664062 332.414062 140.53125 C 332.785156 141.398438 333.117188 142.285156 333.402344 143.1875 C 333.6875 144.085938 333.929688 145 334.125 145.925781 C 334.320312 146.851562 334.46875 147.785156 334.570312 148.726562 C 334.671875 149.664062 334.726562 150.609375 334.734375 151.554688 C 334.742188 152.5 334.703125 153.441406 334.617188 154.382812 C 334.53125 155.328125 334.398438 156.261719 334.222656 157.191406 C 334.042969 158.117188 333.816406 159.035156 333.546875 159.941406 C 333.273438 160.847656 332.960938 161.738281 332.601562 162.613281 C 332.242188 163.488281 331.839844 164.34375 331.394531 165.175781 C 330.949219 166.011719 330.464844 166.824219 329.941406 167.609375 C 329.414062 168.394531 328.851562 169.152344 328.25 169.882812 C 327.648438 170.613281 327.011719 171.3125 326.34375 171.980469 C 325.671875 172.644531 324.96875 173.277344 324.234375 173.875 C 323.503906 174.46875 322.742188 175.03125 321.953125 175.550781 C 321.164062 176.070312 320.347656 176.550781 319.511719 176.992188 C 318.574219 177.546875 317.820312 178.292969 317.253906 179.222656 C 316.6875 180.152344 316.371094 181.164062 316.304688 182.25 Z M 316.304688 285.105469 " fill-opacity="1" fill-rule="nonzero"/></g><g clip-path="url(#5d9d332765)"><g clip-path="url(#f219b16b9a)"><path stroke-linecap="butt" transform="matrix(0.75, 0, 0, 0.75, 118.211826, 48.923668)" fill="none" stroke-linejoin="miter" d="M 92.384244 -0.00239065 C 41.363404 -0.00239065 -0.00118512 41.362198 -0.00118512 92.383038 C -0.00118512 143.403878 41.363404 184.763258 92.384244 184.763258 C 143.405083 184.763258 184.764464 143.403878 184.764464 92.383038 C 184.764464 41.362198 143.405083 -0.00239065 92.384244 -0.00239065 Z M 92.384244 -0.00239065 " stroke="#ff3131" stroke-width="6" stroke-opacity="1" stroke-miterlimit="4"/></g></g><g fill="#ff3131" fill-opacity="1"><g transform="translate(170.325104, 140.423662)"><g><path d="M 20.953125 0 L 16.203125 0 L 16.203125 -30.53125 C 16.203125 -33.070312 16.28125 -35.472656 16.4375 -37.734375 C 16.03125 -37.328125 15.570312 -36.894531 15.0625 -36.4375 C 14.550781 -35.988281 12.226562 -34.085938 8.09375 -30.734375 L 5.515625 -34.078125 L 16.84375 -42.828125 L 20.953125 -42.828125 Z M 20.953125 0 "/></g></g></g></svg>