<svg xmlns="http://www.w3.org/2000/svg" xmlns:xlink="http://www.w3.org/1999/xlink" width="500" zoomAndPan="magnify" viewBox="0 0 375 374.999991" height="500" preserveAspectRatio="xMidYMid meet" version="1.0"><defs><clipPath id="6e4ff748db"><path d="M 27 28 L 346.585938 28 L 346.585938 345 L 27 345 Z M 27 28 " clip-rule="nonzero"/></clipPath><clipPath id="17e10ec0ea"><path d="M 118.210938 48.921875 L 256.785156 48.921875 L 256.785156 187.496094 L 118.210938 187.496094 Z M 118.210938 48.921875 " clip-rule="nonzero"/></clipPath><clipPath id="3640cb58fa"><path d="M 187.5 48.921875 C 149.234375 48.921875 118.210938 79.945312 118.210938 118.210938 C 118.210938 156.476562 149.234375 187.496094 187.5 187.496094 C 225.765625 187.496094 256.785156 156.476562 256.785156 118.210938 C 256.785156 79.945312 225.765625 48.921875 187.5 48.921875 Z M 187.5 48.921875 " clip-rule="nonzero"/></clipPath></defs><rect x="-37.5" width="450" fill="#ffffff" y="-37.499999" height="449.999989" fill-opacity="1"/><rect x="-37.5" width="450" fill="#ffffff" y="-37.499999" height="449.999989" fill-opacity="1"/><g clip-path="url(#6e4ff748db)"><path fill="#000000" d="M 346.585938 151.582031 C 346.582031 150.386719 346.527344 149.191406 346.421875 148 C 346.3125 146.804688 346.152344 145.621094 345.9375 144.441406 C 345.726562 143.265625 345.460938 142.097656 345.144531 140.945312 C 344.824219 139.789062 344.457031 138.652344 344.039062 137.53125 C 343.621094 136.410156 343.152344 135.308594 342.632812 134.230469 C 342.117188 133.148438 341.554688 132.09375 340.941406 131.066406 C 340.332031 130.035156 339.675781 129.035156 338.976562 128.066406 C 338.277344 127.09375 337.535156 126.15625 336.75 125.25 C 335.964844 124.347656 335.144531 123.480469 334.28125 122.648438 C 333.421875 121.816406 332.523438 121.023438 331.59375 120.273438 C 330.660156 119.519531 329.699219 118.8125 328.703125 118.148438 C 327.707031 117.480469 326.683594 116.859375 325.636719 116.285156 C 324.585938 115.710938 323.511719 115.183594 322.414062 114.707031 C 321.316406 114.226562 320.199219 113.796875 319.066406 113.417969 C 317.929688 113.039062 316.78125 112.710938 315.613281 112.433594 C 314.449219 112.160156 313.277344 111.933594 312.089844 111.761719 C 316.480469 68.570312 288.210938 28.484375 244.917969 28.359375 L 128.867188 28.359375 C 85.578125 28.535156 57.304688 68.5 61.695312 111.761719 C 59.675781 112.050781 57.6875 112.488281 55.730469 113.082031 C 53.777344 113.671875 51.878906 114.40625 50.039062 115.285156 C 48.195312 116.167969 46.429688 117.183594 44.742188 118.332031 C 43.054688 119.480469 41.464844 120.753906 39.972656 122.144531 C 38.480469 123.535156 37.097656 125.035156 35.835938 126.636719 C 34.570312 128.238281 33.433594 129.929688 32.425781 131.703125 C 31.417969 133.480469 30.550781 135.324219 29.824219 137.230469 C 29.101562 139.140625 28.523438 141.089844 28.09375 143.085938 C 27.664062 145.082031 27.390625 147.101562 27.269531 149.140625 C 27.148438 151.175781 27.183594 153.210938 27.375 155.246094 C 27.566406 157.277344 27.90625 159.285156 28.402344 161.265625 C 28.898438 163.246094 29.542969 165.175781 30.332031 167.058594 C 31.125 168.941406 32.054688 170.753906 33.121094 172.496094 C 34.1875 174.234375 35.378906 175.882812 36.699219 177.441406 C 38.019531 179 39.449219 180.453125 40.988281 181.792969 C 42.527344 183.132812 44.160156 184.347656 45.886719 185.441406 L 45.886719 290.8125 C 45.886719 291.199219 45.921875 291.582031 46 291.964844 C 46.074219 292.34375 46.1875 292.714844 46.335938 293.074219 C 46.484375 293.433594 46.664062 293.773438 46.882812 294.097656 C 47.097656 294.421875 47.34375 294.71875 47.617188 294.992188 C 47.890625 295.269531 48.191406 295.515625 48.511719 295.730469 C 48.835938 295.945312 49.175781 296.128906 49.535156 296.277344 C 49.894531 296.425781 50.265625 296.535156 50.644531 296.613281 C 51.027344 296.6875 51.410156 296.726562 51.800781 296.726562 L 73.761719 296.726562 L 63.957031 336.925781 C 63.851562 337.359375 63.796875 337.800781 63.789062 338.25 C 63.785156 338.699219 63.828125 339.140625 63.921875 339.578125 C 64.019531 340.015625 64.160156 340.4375 64.351562 340.84375 C 64.542969 341.25 64.777344 341.628906 65.054688 341.980469 C 65.328125 342.332031 65.640625 342.648438 65.992188 342.929688 C 66.339844 343.214844 66.714844 343.453125 67.117188 343.648438 C 67.523438 343.84375 67.941406 343.992188 68.378906 344.09375 C 68.816406 344.191406 69.257812 344.242188 69.707031 344.242188 L 88.558594 344.242188 C 89.59375 344.242188 90.5625 343.988281 91.464844 343.480469 C 92.367188 342.96875 93.085938 342.269531 93.625 341.382812 L 120.558594 296.726562 L 253.226562 296.726562 L 280.160156 341.382812 C 280.695312 342.269531 281.417969 342.96875 282.320312 343.480469 C 283.222656 343.988281 284.191406 344.242188 285.226562 344.242188 L 304.078125 344.242188 C 304.527344 344.238281 304.96875 344.183594 305.402344 344.082031 C 305.835938 343.980469 306.253906 343.828125 306.65625 343.632812 C 307.054688 343.433594 307.429688 343.195312 307.777344 342.914062 C 308.125 342.632812 308.433594 342.316406 308.710938 341.964844 C 308.988281 341.613281 309.21875 341.234375 309.410156 340.832031 C 309.601562 340.429688 309.746094 340.007812 309.84375 339.570312 C 309.941406 339.136719 309.988281 338.695312 309.984375 338.246094 C 309.980469 337.800781 309.929688 337.359375 309.828125 336.925781 L 300.023438 296.726562 L 321.984375 296.726562 C 322.375 296.726562 322.757812 296.6875 323.140625 296.613281 C 323.519531 296.535156 323.890625 296.425781 324.25 296.277344 C 324.609375 296.128906 324.949219 295.945312 325.273438 295.730469 C 325.59375 295.515625 325.894531 295.269531 326.167969 294.992188 C 326.441406 294.71875 326.6875 294.421875 326.902344 294.097656 C 327.121094 293.773438 327.300781 293.433594 327.449219 293.074219 C 327.597656 292.714844 327.710938 292.347656 327.785156 291.964844 C 327.863281 291.582031 327.898438 291.199219 327.898438 290.8125 L 327.898438 185.441406 C 329.324219 184.542969 330.683594 183.558594 331.984375 182.488281 C 333.285156 181.417969 334.511719 180.269531 335.667969 179.042969 C 336.824219 177.820312 337.898438 176.527344 338.890625 175.167969 C 339.882812 173.804688 340.785156 172.390625 341.597656 170.914062 C 342.410156 169.441406 343.128906 167.921875 343.75 166.355469 C 344.375 164.792969 344.894531 163.195312 345.316406 161.5625 C 345.734375 159.933594 346.050781 158.285156 346.265625 156.613281 C 346.476562 154.941406 346.582031 153.265625 346.585938 151.582031 Z M 128.867188 40.1875 L 244.917969 40.1875 C 282.28125 40.792969 303.9375 74.585938 300.261719 111.679688 C 299.082031 111.863281 297.914062 112.097656 296.753906 112.386719 C 295.59375 112.671875 294.453125 113.011719 293.324219 113.398438 C 292.195312 113.789062 291.085938 114.226562 289.996094 114.710938 C 288.902344 115.199219 287.835938 115.730469 286.792969 116.3125 C 285.75 116.890625 284.734375 117.515625 283.75 118.1875 C 282.761719 118.859375 281.804688 119.570312 280.878906 120.324219 C 279.953125 121.078125 279.0625 121.871094 278.210938 122.707031 C 277.355469 123.539062 276.539062 124.40625 275.757812 125.3125 C 274.980469 126.21875 274.246094 127.15625 273.550781 128.125 C 272.851562 129.097656 272.203125 130.09375 271.59375 131.125 C 270.988281 132.152344 270.425781 133.203125 269.914062 134.28125 C 269.398438 135.359375 268.933594 136.457031 268.515625 137.574219 C 268.097656 138.691406 267.730469 139.828125 267.414062 140.976562 C 267.09375 142.128906 266.828125 143.289062 266.613281 144.464844 C 266.398438 145.640625 266.238281 146.820312 266.125 148.007812 C 266.015625 149.199219 265.957031 150.390625 265.953125 151.582031 L 265.953125 213.039062 L 107.832031 213.039062 L 107.832031 151.582031 C 107.835938 149.851562 107.726562 148.132812 107.507812 146.417969 C 107.285156 144.703125 106.957031 143.007812 106.519531 141.335938 C 106.078125 139.664062 105.535156 138.027344 104.886719 136.425781 C 104.234375 134.824219 103.484375 133.273438 102.632812 131.769531 C 101.78125 130.261719 100.839844 128.820312 99.800781 127.4375 C 98.761719 126.054688 97.640625 124.742188 96.433594 123.507812 C 95.226562 122.269531 93.945312 121.113281 92.589844 120.042969 C 91.234375 118.96875 89.816406 117.988281 88.332031 117.101562 C 83.765625 114.28125 78.828125 112.472656 73.523438 111.679688 C 69.863281 74.601562 91.476562 40.789062 128.867188 40.1875 Z M 97.1875 227.148438 C 97.191406 224.613281 100.121094 224.789062 101.917969 224.867188 L 271.867188 224.867188 C 273.5 224.804688 276.699219 224.582031 276.597656 227.148438 C 276.199219 231.042969 277.996094 238.050781 274.316406 237.925781 L 99.46875 237.925781 C 95.742188 238.027344 97.609375 231.03125 97.1875 227.148438 Z M 85.21875 332.414062 L 77.238281 332.414062 L 85.9375 296.726562 L 106.742188 296.726562 Z M 296.546875 332.414062 L 288.566406 332.414062 L 267.042969 296.726562 L 287.847656 296.726562 Z M 316.070312 284.894531 L 57.714844 284.894531 L 57.714844 182.125 C 57.679688 181.84375 57.625 181.566406 57.546875 181.292969 C 57.410156 180.359375 57.078125 179.503906 56.542969 178.726562 C 56.007812 177.949219 55.332031 177.332031 54.507812 176.871094 C 53.097656 176.144531 51.757812 175.308594 50.488281 174.359375 C 49.21875 173.414062 48.035156 172.367188 46.9375 171.21875 C 45.84375 170.074219 44.847656 168.847656 43.957031 167.535156 C 43.066406 166.222656 42.289062 164.847656 41.628906 163.40625 C 40.96875 161.964844 40.429688 160.480469 40.015625 158.949219 C 39.601562 157.421875 39.320312 155.867188 39.164062 154.289062 C 39.011719 152.710938 38.988281 151.132812 39.097656 149.550781 C 39.207031 147.96875 39.445312 146.40625 39.816406 144.863281 C 40.1875 143.324219 40.679688 141.824219 41.300781 140.363281 C 41.921875 138.90625 42.65625 137.507812 43.511719 136.171875 C 44.363281 134.835938 45.320312 133.578125 46.386719 132.402344 C 47.449219 131.226562 48.601562 130.144531 49.84375 129.164062 C 51.085938 128.179688 52.402344 127.304688 53.792969 126.539062 C 55.179688 125.777344 56.625 125.132812 58.121094 124.609375 C 59.617188 124.085938 61.144531 123.6875 62.707031 123.421875 C 64.269531 123.152344 65.84375 123.015625 67.429688 123.007812 C 68.363281 123.011719 69.296875 123.0625 70.226562 123.160156 C 71.15625 123.253906 72.078125 123.394531 72.996094 123.578125 C 73.910156 123.765625 74.816406 123.996094 75.710938 124.269531 C 76.601562 124.542969 77.480469 124.859375 78.34375 125.21875 C 79.207031 125.578125 80.050781 125.980469 80.875 126.421875 C 81.695312 126.863281 82.496094 127.34375 83.273438 127.863281 C 84.050781 128.382812 84.800781 128.941406 85.519531 129.535156 C 86.242188 130.128906 86.933594 130.753906 87.597656 131.417969 C 88.257812 132.078125 88.882812 132.769531 89.476562 133.492188 C 90.070312 134.214844 90.628906 134.960938 91.148438 135.738281 C 91.667969 136.515625 92.148438 137.316406 92.589844 138.140625 C 93.03125 138.960938 93.433594 139.804688 93.792969 140.667969 C 94.152344 141.53125 94.46875 142.410156 94.742188 143.304688 C 95.015625 144.195312 95.246094 145.101562 95.433594 146.015625 C 95.617188 146.933594 95.757812 147.855469 95.851562 148.785156 C 95.949219 149.714844 96 150.648438 96.003906 151.582031 L 96.003906 213.738281 C 95.253906 213.921875 94.527344 214.164062 93.816406 214.464844 C 93.109375 214.769531 92.429688 215.125 91.78125 215.542969 C 91.132812 215.957031 90.523438 216.421875 89.953125 216.9375 C 89.382812 217.453125 88.855469 218.011719 88.378906 218.617188 C 87.898438 219.21875 87.472656 219.855469 87.101562 220.53125 C 86.726562 221.203125 86.410156 221.90625 86.15625 222.628906 C 85.898438 223.355469 85.703125 224.097656 85.570312 224.855469 C 85.433594 225.613281 85.363281 226.378906 85.359375 227.148438 L 85.359375 235.644531 C 85.359375 236.570312 85.449219 237.488281 85.632812 238.398438 C 85.8125 239.304688 86.082031 240.1875 86.4375 241.042969 C 86.792969 241.898438 87.226562 242.710938 87.742188 243.480469 C 88.253906 244.25 88.839844 244.964844 89.496094 245.617188 C 90.152344 246.273438 90.863281 246.859375 91.632812 247.371094 C 92.402344 247.886719 93.214844 248.320312 94.070312 248.675781 C 94.925781 249.03125 95.808594 249.300781 96.714844 249.480469 C 97.625 249.664062 98.542969 249.753906 99.46875 249.753906 L 274.316406 249.753906 C 275.242188 249.753906 276.160156 249.664062 277.066406 249.480469 C 277.976562 249.300781 278.859375 249.03125 279.714844 248.675781 C 280.570312 248.320312 281.382812 247.886719 282.152344 247.371094 C 282.921875 246.859375 283.632812 246.273438 284.289062 245.617188 C 284.945312 244.964844 285.527344 244.25 286.042969 243.480469 C 286.558594 242.710938 286.992188 241.898438 287.347656 241.042969 C 287.703125 240.1875 287.972656 239.304688 288.152344 238.398438 C 288.335938 237.488281 288.425781 236.570312 288.425781 235.644531 L 288.425781 227.148438 C 288.421875 226.378906 288.347656 225.613281 288.214844 224.855469 C 288.082031 224.097656 287.886719 223.355469 287.628906 222.628906 C 287.371094 221.90625 287.058594 221.203125 286.683594 220.53125 C 286.3125 219.855469 285.886719 219.21875 285.40625 218.617188 C 284.929688 218.011719 284.402344 217.453125 283.832031 216.9375 C 283.261719 216.421875 282.652344 215.957031 282 215.542969 C 281.351562 215.125 280.675781 214.769531 279.964844 214.464844 C 279.257812 214.164062 278.53125 213.921875 277.78125 213.738281 L 277.78125 151.582031 C 277.773438 150.351562 277.84375 149.128906 277.996094 147.910156 C 278.144531 146.691406 278.375 145.484375 278.6875 144.296875 C 278.996094 143.105469 279.382812 141.945312 279.84375 140.804688 C 280.308594 139.667969 280.84375 138.5625 281.449219 137.496094 C 282.058594 136.425781 282.734375 135.402344 283.476562 134.425781 C 284.21875 133.445312 285.023438 132.519531 285.886719 131.644531 C 286.75 130.773438 287.667969 129.960938 288.640625 129.207031 C 289.613281 128.453125 290.628906 127.769531 291.691406 127.148438 C 292.507812 126.671875 293.34375 126.238281 294.203125 125.84375 C 295.0625 125.449219 295.9375 125.101562 296.832031 124.792969 C 297.726562 124.488281 298.632812 124.226562 299.550781 124.011719 C 300.472656 123.792969 301.402344 123.625 302.335938 123.5 C 303.273438 123.378906 304.214844 123.300781 305.160156 123.269531 C 306.105469 123.242188 307.046875 123.257812 307.988281 123.324219 C 308.933594 123.386719 309.871094 123.5 310.800781 123.65625 C 311.734375 123.816406 312.65625 124.019531 313.566406 124.269531 C 314.476562 124.519531 315.375 124.8125 316.257812 125.152344 C 317.136719 125.492188 318 125.871094 318.84375 126.296875 C 319.6875 126.722656 320.507812 127.1875 321.308594 127.695312 C 322.105469 128.203125 322.875 128.746094 323.617188 129.332031 C 324.359375 129.914062 325.074219 130.535156 325.753906 131.1875 C 326.4375 131.84375 327.082031 132.53125 327.695312 133.25 C 328.308594 133.96875 328.882812 134.71875 329.421875 135.492188 C 329.960938 136.269531 330.460938 137.070312 330.917969 137.898438 C 331.375 138.722656 331.792969 139.570312 332.167969 140.4375 C 332.539062 141.308594 332.871094 142.191406 333.15625 143.089844 C 333.441406 143.992188 333.683594 144.90625 333.878906 145.828125 C 334.070312 146.753906 334.21875 147.6875 334.324219 148.625 C 334.425781 149.566406 334.480469 150.507812 334.488281 151.453125 C 334.496094 152.398438 334.457031 153.339844 334.371094 154.28125 C 334.285156 155.222656 334.152344 156.15625 333.972656 157.085938 C 333.792969 158.011719 333.570312 158.929688 333.296875 159.832031 C 333.027344 160.738281 332.714844 161.628906 332.355469 162.503906 C 331.996094 163.378906 331.59375 164.230469 331.148438 165.066406 C 330.703125 165.898438 330.21875 166.707031 329.695312 167.496094 C 329.171875 168.28125 328.609375 169.039062 328.007812 169.765625 C 327.40625 170.496094 326.769531 171.195312 326.101562 171.859375 C 325.429688 172.527344 324.730469 173.160156 323.996094 173.753906 C 323.261719 174.351562 322.503906 174.910156 321.714844 175.429688 C 320.925781 175.949219 320.113281 176.429688 319.277344 176.871094 C 318.339844 177.425781 317.585938 178.167969 317.019531 179.097656 C 316.453125 180.027344 316.136719 181.039062 316.070312 182.125 Z M 316.070312 284.894531 " fill-opacity="1" fill-rule="nonzero"/></g><g clip-path="url(#17e10ec0ea)"><g clip-path="url(#3640cb58fa)"><path stroke-linecap="butt" transform="matrix(0.75, 0, 0, 0.75, 118.211826, 48.923661)" fill="none" stroke-linejoin="miter" d="M 92.384244 -0.00238105 C 41.363404 -0.00238105 -0.00118512 41.362208 -0.00118512 92.383048 C -0.00118512 143.403888 41.363404 184.763268 92.384244 184.763268 C 143.405083 184.763268 184.764464 143.403888 184.764464 92.383048 C 184.764464 41.362208 143.405083 -0.00238105 92.384244 -0.00238105 Z M 92.384244 -0.00238105 " stroke="#000000" stroke-width="6" stroke-opacity="1" stroke-miterlimit="4"/></g></g></svg>